<?xml version="1.0" encoding="utf-8"?>
<!DOCTYPE svg PUBLIC "-//W3C//DTD SVG 20010904//EN" "http://www.w3.org/TR/2001/REC-SVG-20010904/DTD/svg10.dtd">
<svg version="1.0" xmlns="http://www.w3.org/2000/svg" width="514pt" height="514pt" viewBox="0 0 514 514" style="" preserveAspectRatio="xMidYMid meet">
<g fill="#4F46E5FF" stroke="#4F46E5FF">
<path d="M 218.372 2.086 C 69.429 8.145 16.959 52.219 4.523 181.715 C 2.199 205.915 1.807 204.006 9.762 207.234 C 30.670 215.720 46.834 234.105 53.126 256.557 C 55.883 266.394 56.123 282.120 53.671 292.230 C 48.118 315.120 32.399 333.654 10.250 343.428 C 7.913 344.460 6.000 345.875 6.000 346.572 C 6.000 347.270 7.124 354.478 8.498 362.589 C 24.833 459.013 71.879 498.909 181.715 509.480 C 210.879 512.287 254.092 513.380 286.750 512.137 C 312.138 511.171 338.841 509.355 339.770 508.533 C 339.918 508.401 339.312 505.190 338.422 501.397 C 337.234 496.330 336.927 491.449 337.266 483.000 C 338.078 462.731 344.228 448.832 358.994 433.897 C 366.136 426.674 369.023 424.550 377.000 420.648 C 389.847 414.365 397.044 412.645 410.500 412.640 C 418.870 412.637 423.413 413.173 429.500 414.883 C 445.196 419.290 460.246 429.536 469.513 442.125 L 473.672 447.775 478.744 439.637 C 491.861 418.590 499.965 395.274 505.482 362.704 C 515.057 306.184 515.057 207.816 505.482 151.296 C 497.164 102.195 481.281 69.347 454.692 46.254 C 450.736 42.819 447.214 40.006 446.864 40.004 C 446.514 40.002 444.295 43.253 441.933 47.229 C 433.255 61.836 418.113 73.960 401.500 79.601 C 391.137 83.121 374.336 83.993 363.035 81.599 C 348.221 78.461 331.894 68.668 322.512 57.293 C 311.673 44.152 306.149 29.929 305.275 12.905 L 304.731 2.310 283.704 1.655 C 259.489 0.901 245.181 0.995 218.372 2.086 M 197.419 70.979 C 216.002 75.732 231.761 86.747 241.672 101.911 C 243.681 104.985 245.488 107.699 245.687 107.941 C 245.886 108.184 248.503 105.960 251.501 102.999 L 256.952 97.616 264.726 105.051 C 269.002 109.141 283.961 123.910 297.969 137.871 C 316.711 156.550 323.473 163.908 323.570 165.728 C 323.673 167.668 319.991 171.955 306.498 185.601 C 297.036 195.170 288.743 203.000 288.070 203.000 C 287.397 203.000 281.922 198.388 275.904 192.750 C 263.738 181.354 260.575 179.531 254.552 180.451 C 251.127 180.974 248.679 182.783 238.736 192.137 C 230.648 199.747 226.480 203.015 225.396 202.598 C 224.528 202.265 222.622 202.837 221.159 203.868 C 214.141 208.817 197.991 215.000 192.082 215.000 C 190.399 215.000 188.322 213.901 186.593 212.097 C 183.421 208.787 183.517 208.712 192.461 207.491 C 198.566 206.658 205.818 203.971 212.786 199.961 L 218.072 196.919 204.286 182.473 C 195.058 172.803 190.487 167.279 190.462 165.764 C 190.434 164.117 197.178 156.733 215.223 138.656 L 240.022 113.811 237.261 108.656 C 232.903 100.518 220.883 89.157 211.500 84.308 C 200.021 78.374 192.661 76.617 179.500 76.666 C 166.658 76.714 156.823 79.383 146.151 85.717 C 138.190 90.441 126.489 102.621 122.341 110.500 C 108.718 136.378 112.400 166.606 131.661 187.024 C 137.439 193.149 146.216 199.994 150.299 201.561 C 151.186 201.902 154.142 199.911 157.859 196.470 C 161.215 193.363 164.392 190.973 164.919 191.160 C 166.595 191.754 184.186 208.522 182.586 208.000 C 181.743 207.725 185.450 211.859 190.822 217.187 C 198.308 224.609 200.434 227.297 199.920 228.687 C 199.317 230.315 178.426 253.208 174.026 257.062 C 172.353 258.527 173.116 259.517 186.371 273.062 L 200.500 287.500 186.981 301.000 C 173.559 314.403 173.554 314.410 186.196 302.049 C 193.200 295.201 199.162 289.828 199.444 290.110 C 199.726 290.392 196.624 294.367 192.551 298.943 L 185.145 307.263 194.491 307.075 C 209.401 306.774 225.246 311.295 236.722 319.125 C 242.949 323.374 253.530 333.503 256.122 337.697 C 257.245 339.514 258.653 341.000 259.251 341.000 C 259.850 341.000 266.467 334.929 273.955 327.509 L 287.571 314.017 294.460 320.960 C 298.249 324.778 301.651 327.716 302.020 327.487 C 302.789 327.013 322.960 347.243 323.077 348.605 C 323.119 349.097 323.311 350.337 323.504 351.360 C 323.755 352.687 314.628 362.584 291.678 385.872 C 273.980 403.831 257.487 421.381 255.027 424.872 C 246.189 437.411 228.341 449.008 212.430 452.548 C 201.905 454.889 183.266 454.136 174.007 450.995 C 148.918 442.484 130.215 422.300 124.472 397.536 C 122.717 389.966 122.410 373.879 123.879 366.435 C 125.325 359.106 129.456 348.658 133.611 341.817 C 137.191 335.924 146.827 325.322 152.392 321.155 L 155.283 318.989 126.810 290.192 C 111.149 274.353 98.066 260.359 97.735 259.094 C 97.219 257.122 100.555 253.355 121.067 232.747 C 134.230 219.522 145.000 208.361 145.000 207.946 C 145.000 207.530 142.877 205.946 140.281 204.425 C 133.421 200.405 121.995 188.530 117.239 180.479 C 110.460 169.004 107.748 159.516 107.222 145.423 C 106.848 135.428 107.130 131.921 108.861 125.078 C 114.334 103.435 127.905 86.517 147.803 76.530 C 153.841 73.500 158.825 71.851 168.500 69.681 C 174.205 68.401 190.135 69.116 197.419 70.979 M 406.000 175.065 C 422.346 177.705 433.706 183.714 446.522 196.500 C 456.453 206.407 461.106 214.022 465.158 227.000 C 467.158 233.404 467.494 236.546 467.459 248.500 C 467.423 261.139 467.150 263.278 464.652 270.500 C 463.130 274.900 460.040 281.650 457.785 285.500 C 452.901 293.841 440.745 306.123 432.623 310.923 C 414.327 321.737 390.461 324.233 370.246 317.446 L 362.656 314.899 356.551 320.949 C 353.193 324.277 350.001 327.000 349.457 327.000 C 347.372 327.000 313.453 291.213 314.524 290.143 C 314.824 289.843 320.800 295.201 327.804 302.049 L 340.538 314.500 327.019 300.977 L 313.500 287.453 319.746 281.477 L 325.991 275.500 323.887 269.000 C 322.398 264.403 321.633 258.841 321.274 250.000 C 320.804 238.403 320.577 237.258 318.134 234.148 C 312.634 227.147 312.548 227.645 320.613 219.825 C 324.644 215.916 327.755 212.412 327.524 212.040 C 326.791 210.852 349.279 189.325 355.051 185.689 C 370.519 175.947 388.389 172.220 406.000 175.065 M 271.505 243.005 L 285.482 257.009 271.241 271.250 L 257.000 285.491 242.759 271.250 L 228.518 257.009 242.495 243.005 C 250.183 235.302 256.710 229.000 257.000 229.000 C 257.290 229.000 263.817 235.302 271.505 243.005 M 243.237 272.737 L 257.000 286.473 270.965 272.535 C 278.646 264.869 285.172 258.839 285.468 259.135 C 286.474 260.141 258.956 288.890 256.906 288.975 C 256.048 289.011 234.344 267.198 230.811 262.750 C 225.007 255.444 229.649 259.174 243.237 272.737 "/></g>
<g fill="#4F46E5FF" stroke="#4F46E5FF">
<path d="M 189.352 315.028 C 178.971 316.117 175.082 317.666 169.733 322.844 C 165.457 326.983 164.754 327.328 162.924 326.184 C 160.089 324.414 155.917 327.132 147.479 336.246 C 139.701 344.647 133.718 356.118 131.371 367.134 C 129.491 375.958 130.024 390.697 132.524 399.000 C 141.460 428.683 169.144 448.397 199.500 446.694 C 219.323 445.582 237.357 436.056 248.691 420.711 L 252.228 415.921 221.186 384.576 C 198.979 362.153 190.243 352.700 190.495 351.365 C 190.689 350.339 190.881 349.152 190.923 348.728 C 191.061 347.342 199.211 339.012 199.970 339.482 C 200.377 339.733 201.787 338.715 203.105 337.219 L 205.500 334.500 202.500 336.977 C 200.850 338.340 202.200 336.704 205.500 333.343 C 208.800 329.982 210.600 328.477 209.500 329.998 C 208.400 331.519 210.586 329.719 214.358 325.998 L 221.216 319.232 216.358 317.644 C 211.922 316.194 207.729 315.434 199.500 314.587 C 197.850 314.417 193.283 314.615 189.352 315.028 "/></g>
<g fill="#4F46E5FF" stroke="#4F46E5FF">
<path d="M 378.000 183.593 C 374.975 184.396 369.350 186.591 365.500 188.469 C 352.838 194.647 350.678 190.693 385.868 225.757 C 412.640 252.432 416.815 256.992 416.295 258.981 C 415.963 260.249 405.182 271.965 392.337 285.018 C 369.070 308.662 368.993 308.754 371.741 309.789 C 379.095 312.559 382.205 313.186 391.000 313.673 C 433.621 316.031 467.183 278.038 459.615 236.000 C 455.121 211.039 435.186 189.713 410.540 183.502 C 402.965 181.593 385.343 181.642 378.000 183.593 "/></g>
<g fill="#4F46E5FF" stroke="#4F46E5FF">
<path d="M 394.638 421.585 C 381.883 424.673 367.695 433.620 359.313 443.862 C 350.500 454.632 344.000 472.462 344.000 485.870 C 344.000 491.407 346.558 505.961 347.738 507.133 C 348.778 508.166 374.785 503.671 388.464 500.093 C 410.169 494.418 427.634 486.839 443.560 476.186 C 452.634 470.117 468.008 455.985 467.990 453.730 C 467.972 451.345 457.838 439.033 452.203 434.550 C 445.100 428.898 434.529 423.685 425.936 421.596 C 417.899 419.642 402.689 419.637 394.638 421.585 "/></g>
<g fill="#FFFFFFFF" stroke="#FFFFFFFF">
<path d="M 208.750 331.403 C 198.988 340.891 191.000 349.071 191.000 349.582 C 191.000 350.093 205.850 365.356 224.000 383.500 L 257.000 416.489 290.000 383.500 C 308.150 365.356 323.000 350.093 323.000 349.582 C 323.000 349.071 315.013 340.891 305.250 331.403 L 287.500 314.153 272.250 329.314 L 257.000 344.476 241.750 329.314 L 226.500 314.153 208.750 331.403 "/></g>
<g fill="#FFFFFFFF" stroke="#FFFFFFFF">
<path d="M 130.500 224.000 L 97.511 257.000 130.500 290.000 C 148.644 308.150 163.865 323.000 164.326 323.000 C 164.786 323.000 172.969 315.013 182.510 305.250 L 199.857 287.500 184.691 272.250 L 169.524 257.000 184.686 241.750 L 199.847 226.500 182.597 208.750 C 173.109 198.988 164.929 191.000 164.418 191.000 C 163.907 191.000 148.644 205.850 130.500 224.000 "/></g>
<g fill="#FFFFFFFF" stroke="#FFFFFFFF">
<path d="M 331.323 208.868 L 314.146 226.654 329.315 241.823 L 344.484 256.992 329.318 272.246 L 314.153 287.500 331.458 305.250 C 340.976 315.013 349.157 323.000 349.637 323.000 C 350.118 323.000 365.356 308.150 383.500 290.000 L 416.489 257.000 383.500 224.000 C 365.356 205.850 350.059 191.018 349.506 191.041 C 348.953 191.064 340.770 199.086 331.323 208.868 "/></g>
<g fill="#FFFFFFFF" stroke="#FFFFFFFF">
<path d="M 223.744 130.756 C 205.735 148.771 191.000 163.899 191.000 164.374 C 191.000 164.848 198.988 173.024 208.750 182.542 L 226.500 199.847 241.750 184.686 L 257.000 169.524 272.250 184.686 L 287.500 199.847 305.250 182.542 C 315.013 173.024 323.000 164.843 323.000 164.363 C 323.000 163.462 257.884 98.000 256.989 98.000 C 256.714 98.000 241.754 112.740 223.744 130.756 "/></g>
<g fill="#4F46E5FF" stroke="#4F46E5FF">
<path d="M 312.364 5.687 C 311.356 9.700 313.717 25.203 316.435 32.425 C 322.273 47.934 334.668 61.683 349.267 68.845 C 368.324 78.192 388.414 78.176 408.000 68.798 C 414.954 65.468 418.053 63.161 425.039 56.114 C 430.363 50.743 434.797 45.170 436.814 41.313 L 440.050 35.126 433.746 31.600 C 408.386 17.418 375.683 8.691 332.285 4.523 C 312.059 2.580 313.160 2.516 312.364 5.687 "/></g>
<g fill="#4F46E5FF" stroke="#4F46E5FF">
<path d="M 1.518 237.317 C 0.591 270.451 3.201 334.534 5.573 336.906 C 6.503 337.837 18.202 331.275 23.655 326.764 C 33.650 318.497 40.938 307.619 45.605 294.000 C 48.525 285.480 48.299 264.914 45.183 255.500 C 38.831 236.313 23.510 220.227 4.816 213.120 L 2.222 212.134 1.518 237.317 "/></g>
<g fill="#34195FFF" stroke="#34195FFF">
<path d="M 97.708 258.993 C 98.054 260.314 111.149 274.353 126.810 290.192 L 155.283 318.989 152.392 321.155 C 146.827 325.322 137.191 335.924 133.611 341.817 C 129.456 348.658 125.325 359.106 123.879 366.435 C 122.410 373.879 122.717 389.966 124.472 397.536 C 130.215 422.300 148.918 442.484 174.007 450.995 C 183.266 454.136 201.905 454.889 212.430 452.548 C 228.341 449.008 246.189 437.411 255.027 424.872 C 257.487 421.381 273.938 403.874 291.583 385.968 C 309.529 367.758 323.667 352.625 323.667 351.628 C 323.667 350.547 310.525 362.982 290.333 383.167 L 257.000 416.489 223.667 383.167 C 203.393 362.900 190.333 350.545 190.333 351.634 C 190.333 352.641 203.860 367.081 221.281 384.672 L 252.228 415.921 248.691 420.711 C 234.049 440.536 207.197 450.717 183.000 445.618 C 168.341 442.529 152.653 432.845 144.225 421.681 C 135.328 409.897 131.153 398.571 130.335 384.000 C 129.323 365.966 135.251 349.453 147.479 336.246 C 155.917 327.132 160.089 324.414 162.924 326.184 C 164.754 327.328 165.457 326.983 169.733 322.844 C 175.176 317.574 178.733 316.194 189.718 315.086 C 198.545 314.197 209.045 315.190 216.307 317.602 L 221.221 319.234 223.843 316.611 L 226.466 313.989 241.689 329.189 L 256.913 344.389 259.029 342.444 C 260.431 341.156 260.646 340.592 259.668 340.772 C 258.855 340.922 257.266 339.548 256.135 337.719 C 253.532 333.506 242.962 323.383 236.722 319.125 C 225.246 311.295 209.401 306.774 194.491 307.075 L 185.145 307.263 192.598 298.890 C 196.697 294.285 199.698 290.399 199.268 290.256 C 198.837 290.112 190.861 297.667 181.544 307.044 L 164.604 324.093 130.842 290.342 C 110.063 269.570 97.322 257.515 97.708 258.993 "/></g>
<g fill="#34195FFF" stroke="#34195FFF">
<path d="M 383.000 175.002 C 365.240 178.027 352.928 185.156 337.000 201.636 L 326.501 212.500 338.020 201.246 L 349.538 189.993 352.083 192.537 L 354.627 195.081 357.251 193.018 C 361.069 190.014 371.590 185.312 378.460 183.539 C 386.129 181.559 402.755 181.540 410.540 183.502 C 435.186 189.713 455.121 211.039 459.615 236.000 C 467.183 278.038 433.621 316.031 391.000 313.673 C 382.205 313.186 379.095 312.559 371.741 309.789 C 368.993 308.754 369.071 308.661 392.418 284.936 C 405.308 271.838 415.999 260.193 416.177 259.057 C 416.369 257.829 402.925 270.580 383.019 290.505 L 349.538 324.017 332.305 306.806 C 315.027 289.549 308.580 284.658 320.162 297.594 C 329.862 308.428 348.364 327.000 349.457 327.000 C 350.001 327.000 353.193 324.277 356.551 320.949 L 362.656 314.899 370.246 317.446 C 390.461 324.233 414.327 321.737 432.623 310.923 C 440.745 306.123 452.901 293.841 457.785 285.500 C 460.040 281.650 463.130 274.900 464.652 270.500 C 467.150 263.278 467.423 261.139 467.459 248.500 C 467.505 232.611 465.820 225.282 459.180 212.500 C 454.816 204.099 440.468 189.239 431.835 184.179 C 417.774 175.938 398.628 172.340 383.000 175.002 "/></g>
<g fill="#34195FFF" stroke="#34195FFF">
<path d="M 168.500 69.681 C 153.921 72.951 144.667 77.061 134.813 84.644 C 102.573 109.452 97.472 158.327 123.855 189.644 C 128.770 195.478 137.507 203.001 143.594 206.639 C 145.412 207.726 145.363 207.933 142.518 211.139 C 140.878 212.988 142.753 211.350 146.685 207.500 C 150.617 203.650 153.204 200.861 152.435 201.303 C 150.141 202.620 142.176 197.286 133.403 188.557 C 127.029 182.215 124.417 178.691 121.131 172.000 C 108.589 146.466 113.022 117.600 132.651 96.992 C 140.949 88.280 149.256 83.012 160.500 79.328 C 167.113 77.161 170.407 76.700 179.500 76.666 C 192.676 76.617 200.041 78.379 211.500 84.322 C 225.180 91.417 241.967 110.410 238.694 115.089 C 238.037 116.028 239.410 114.916 241.744 112.617 L 245.987 108.437 242.159 102.616 C 228.196 81.381 204.915 68.816 180.090 69.116 C 174.816 69.180 169.600 69.434 168.500 69.681 "/></g>
<g fill="#FFFFFFFF" stroke="#FFFFFFFF">
<path d="M 242.495 243.005 L 228.518 257.009 242.759 271.250 L 257.000 285.491 271.241 271.250 L 285.482 257.009 271.505 243.005 C 263.817 235.302 257.290 229.000 257.000 229.000 C 256.710 229.000 250.183 235.302 242.495 243.005 "/></g>
<g fill="#34195FFF" stroke="#34195FFF">
<path d="M 399.536 413.050 C 383.830 415.502 370.489 422.377 358.994 433.942 C 344.251 448.776 338.078 462.712 337.266 483.000 C 336.929 491.401 337.235 496.336 338.402 501.312 C 339.281 505.059 340.000 508.321 340.000 508.562 C 340.000 508.803 338.313 509.099 336.250 509.220 C 333.827 509.362 333.915 509.386 336.500 509.287 C 344.688 508.975 348.855 508.255 347.913 507.313 C 346.591 505.991 344.000 491.792 344.000 485.870 C 344.000 470.188 351.724 451.433 362.816 440.187 C 375.531 427.294 389.479 421.032 407.274 420.228 C 424.501 419.450 439.057 424.090 452.203 434.550 C 457.838 439.033 467.972 451.345 467.990 453.730 C 468.009 456.059 452.484 470.230 443.000 476.540 C 431.820 483.980 420.408 489.609 405.384 495.095 C 399.398 497.281 395.850 498.793 397.500 498.455 C 402.435 497.444 418.972 491.014 427.053 486.962 C 444.205 478.363 461.960 464.367 469.154 453.773 C 472.946 448.189 473.130 447.604 471.867 445.142 C 471.122 443.689 466.668 438.675 461.969 434.000 C 452.286 424.366 442.376 418.485 430.112 415.094 C 421.319 412.662 407.806 411.759 399.536 413.050 "/></g>
<g fill="#34195FFF" stroke="#34195FFF">
<path d="M 309.110 2.739 L 304.719 3.129 305.275 13.314 C 306.810 41.423 322.260 64.199 348.124 76.482 C 358.826 81.564 368.058 83.272 382.000 82.749 C 395.474 82.244 405.194 79.428 416.479 72.761 C 425.470 67.450 436.483 56.403 441.933 47.229 C 444.295 43.253 446.514 40.002 446.864 40.004 C 447.214 40.006 450.736 42.819 454.692 46.254 C 472.687 61.883 484.932 80.782 495.095 108.616 C 497.281 114.602 498.793 118.150 498.455 116.500 C 497.479 111.732 491.073 95.147 487.255 87.500 C 478.890 70.749 466.299 54.450 454.418 44.994 C 446.518 38.706 439.842 34.975 439.315 36.554 C 437.771 41.187 430.188 51.466 423.840 57.530 C 403.598 76.870 374.598 81.270 349.267 68.845 C 329.437 59.117 315.887 39.903 312.868 17.226 C 311.415 6.313 312.018 3.282 315.752 2.716 C 318.212 2.343 318.238 2.302 316.000 2.325 C 314.625 2.338 311.524 2.525 309.110 2.739 "/></g>
<g fill="#34195FFF" stroke="#34195FFF">
<path d="M 2.456 203.695 L 2.579 211.891 11.806 216.510 C 27.469 224.351 39.539 238.451 45.183 255.500 C 48.299 264.914 48.525 285.480 45.605 294.000 C 39.409 312.080 28.145 325.847 12.901 333.972 C 6.102 337.596 5.264 337.675 4.694 334.750 C 4.453 333.513 4.486 334.750 4.769 337.500 C 5.051 340.250 5.365 343.850 5.467 345.500 C 5.569 347.150 5.730 347.781 5.826 346.902 C 5.922 346.023 7.913 344.460 10.250 343.428 C 32.399 333.654 48.118 315.120 53.671 292.230 C 56.123 282.120 55.883 266.394 53.126 256.557 C 46.841 234.130 30.715 215.771 9.801 207.234 L 3.103 204.500 2.717 200.000 C 2.506 197.525 2.388 199.188 2.456 203.695 "/></g>
<g fill="#34195FFF" stroke="#34195FFF">
<path d="M 190.388 166.435 C 190.528 167.394 196.809 174.638 204.344 182.534 L 218.044 196.890 213.430 199.594 C 206.137 203.868 197.987 206.873 191.728 207.596 C 188.553 207.963 185.756 208.585 185.513 208.979 C 185.270 209.372 186.413 210.979 188.052 212.550 C 190.942 215.319 191.192 215.372 196.267 214.296 C 203.704 212.718 211.709 209.547 218.352 205.547 C 221.505 203.648 224.734 202.345 225.529 202.649 C 226.439 202.999 231.318 199.116 238.736 192.137 C 256.006 175.890 257.941 175.922 275.904 192.750 C 281.922 198.388 287.397 203.000 288.070 203.000 C 290.010 203.000 323.859 168.246 323.605 166.515 C 323.457 165.506 320.880 167.513 316.268 172.230 C 312.358 176.228 304.397 184.218 298.577 189.985 L 287.994 200.470 272.497 184.997 L 257.000 169.524 241.750 184.713 L 226.500 199.903 223.000 196.843 C 221.075 195.160 212.892 187.238 204.816 179.237 C 196.740 171.237 190.247 165.476 190.388 166.435 "/></g>
<g fill="#34195FFF" stroke="#34195FFF">
<path d="M 313.634 227.500 C 314.029 228.600 315.848 231.268 317.676 233.430 C 320.932 237.280 321.000 237.555 321.017 246.930 C 321.034 256.180 322.605 266.346 324.961 272.444 L 326.098 275.388 335.294 266.193 L 344.489 256.997 328.702 241.249 C 320.019 232.587 313.239 226.400 313.634 227.500 M 337.025 263.475 C 334.498 265.964 332.141 268.000 331.787 268.000 C 330.944 268.000 329.221 259.213 328.452 251.000 L 327.843 244.500 334.731 251.725 L 341.618 258.951 337.025 263.475 "/></g>
<g fill="#34195FFF" stroke="#34195FFF">
<path d="M 230.811 262.750 C 234.344 267.198 256.048 289.011 256.906 288.975 C 258.956 288.890 286.474 260.141 285.468 259.135 C 285.172 258.839 278.646 264.869 270.965 272.535 L 257.000 286.473 243.237 272.737 C 229.649 259.174 225.007 255.444 230.811 262.750 "/></g>
<g fill="#4F46E5FF" stroke="#4F46E5FF">
<path d="M 328.452 251.000 C 329.221 259.213 330.944 268.000 331.787 268.000 C 332.141 268.000 334.498 265.964 337.025 263.475 L 341.618 258.951 334.731 251.725 L 327.843 244.500 328.452 251.000 "/></g>
<g fill="#34195FFF" stroke="#34195FFF">
<path d="M 15.545 397.500 C 15.883 399.150 17.755 404.775 19.705 410.000 C 35.303 451.789 62.211 478.697 104.000 494.295 C 109.225 496.245 114.850 498.117 116.500 498.455 C 118.150 498.793 114.602 497.281 108.616 495.095 C 61.688 477.960 36.040 452.312 18.905 405.384 C 16.719 399.398 15.207 395.850 15.545 397.500 "/></g>
<g fill="#34195FFF" stroke="#34195FFF">
<path d="M 107.000 18.547 C 63.016 34.505 35.642 61.301 19.705 104.000 C 17.755 109.225 15.883 114.850 15.545 116.500 C 15.207 118.150 16.719 114.602 18.905 108.616 C 36.046 61.673 62.156 35.587 108.616 18.991 C 114.602 16.853 118.825 15.103 118.000 15.102 C 117.175 15.101 112.225 16.651 107.000 18.547 "/></g>
<g fill="#34195FFF" stroke="#34195FFF">
<path d="M 185.010 241.499 L 169.520 257.004 177.501 264.752 L 185.481 272.500 178.635 265.369 C 174.870 261.446 172.251 258.071 172.815 257.869 C 174.854 257.136 199.931 229.659 200.212 227.849 C 200.370 226.829 193.530 232.971 185.010 241.499 "/></g>
<g fill="#34195FFF" stroke="#34195FFF">
<path d="M 495.156 404.833 C 491.010 417.080 484.596 430.682 478.588 439.970 C 476.064 443.871 474.010 447.386 474.021 447.781 C 474.074 449.539 483.694 433.564 488.042 424.500 C 492.951 414.265 499.283 397.349 498.775 395.826 C 498.620 395.359 496.991 399.412 495.156 404.833 "/></g>
<g fill="#34195FFF" stroke="#34195FFF">
<path d="M 405.500 18.999 C 411.550 21.142 421.825 25.506 428.334 28.697 C 435.607 32.264 437.715 33.069 433.805 30.787 C 423.434 24.737 399.549 14.880 395.670 15.052 C 395.027 15.080 399.450 16.856 405.500 18.999 "/></g>
<g fill="#4F46E5FF" stroke="#4F46E5FF">
<path d="M 301.000 186.981 L 288.500 199.531 301.000 186.981 L 313.500 174.432 301.000 186.981 "/></g>
<g fill="#4F46E5FF" stroke="#4F46E5FF">
<path d="M 210.500 184.500 L 221.000 195.000 210.500 184.500 L 200.000 174.000 210.500 184.500 "/></g>
<g fill="#34195FFF" stroke="#34195FFF">
<path d="M 312.000 337.000 L 322.000 347.000 312.000 337.000 L 302.000 327.000 312.000 337.000 "/></g>
<g fill="#34195FFF" stroke="#34195FFF">
<path d="M 202.000 336.976 L 192.500 346.537 202.000 336.976 L 211.500 327.415 202.000 336.976 "/></g>
<g fill="#34195FFF" stroke="#34195FFF">
<path d="M 385.000 501.078 C 381.425 502.115 380.107 502.741 382.072 502.470 C 386.217 501.897 395.223 499.199 393.000 499.196 C 392.175 499.194 388.575 500.042 385.000 501.078 "/></g>
<g fill="#34195FFF" stroke="#34195FFF">
<path d="M 123.928 500.587 C 126.364 501.351 129.964 502.201 131.928 502.476 C 133.893 502.752 132.350 502.092 128.500 501.011 C 120.571 498.785 117.182 498.470 123.928 500.587 "/></g>
<g fill="#34195FFF" stroke="#34195FFF">
<path d="M 500.667 386.167 C 499.726 390.085 499.138 393.471 499.359 393.693 C 499.580 393.914 500.544 390.902 501.500 387.000 C 502.456 383.098 503.045 379.711 502.807 379.474 C 502.570 379.237 501.607 382.249 500.667 386.167 "/></g>
<g fill="#34195FFF" stroke="#34195FFF">
<path d="M 11.090 379.794 C 10.955 381.731 14.306 394.593 14.653 393.470 C 14.817 392.936 14.103 389.350 13.066 385.500 C 12.029 381.650 11.140 379.083 11.090 379.794 "/></g>
<g fill="#34195FFF" stroke="#34195FFF">
<path d="M 499.122 120.500 C 499.080 121.050 499.930 124.650 501.011 128.500 C 502.092 132.350 502.752 133.893 502.476 131.928 C 501.931 128.033 499.245 118.882 499.122 120.500 "/></g>
<g fill="#34195FFF" stroke="#34195FFF">
<path d="M 12.677 126.236 C 11.755 129.907 11.041 133.494 11.090 134.206 C 11.140 134.917 12.029 132.350 13.066 128.500 C 14.103 124.650 14.817 121.064 14.653 120.530 C 14.488 119.997 13.599 122.564 12.677 126.236 "/></g>
<g fill="#34195FFF" stroke="#34195FFF">
<path d="M 385.500 13.066 C 389.350 14.103 392.936 14.817 393.470 14.653 C 394.593 14.306 381.731 10.955 379.794 11.090 C 379.083 11.140 381.650 12.029 385.500 13.066 "/></g>
<g fill="#34195FFF" stroke="#34195FFF">
<path d="M 125.504 12.767 C 122.206 13.630 119.956 14.474 120.504 14.644 C 121.052 14.813 124.650 14.103 128.500 13.066 C 132.350 12.029 134.600 11.185 133.500 11.190 C 132.400 11.194 128.802 11.904 125.504 12.767 "/></g>
<g fill="#4F46E5FF" stroke="#4F46E5FF">
<path d="M 334.500 205.464 L 328.500 211.549 334.500 205.464 L 340.500 199.378 334.500 205.464 "/></g>
<g fill="#34195FFF" stroke="#34195FFF">
<path d="M 178.500 203.500 L 184.000 209.000 178.500 203.500 L 173.000 198.000 178.500 203.500 "/></g>
<g fill="#34195FFF" stroke="#34195FFF">
<path d="M 409.500 249.500 L 413.000 253.000 409.500 249.500 L 406.000 246.000 409.500 249.500 "/></g>
<g fill="#34195FFF" stroke="#34195FFF">
<path d="M 104.500 249.435 L 101.500 252.564 104.500 249.435 L 107.500 246.305 104.500 249.435 "/></g>
<g fill="#34195FFF" stroke="#34195FFF">
<path d="M 400.500 240.500 L 404.000 244.000 400.500 240.500 L 397.000 237.000 400.500 240.500 "/></g>
<g fill="#34195FFF" stroke="#34195FFF">
<path d="M 113.500 240.435 L 110.500 243.564 113.500 240.435 L 116.500 237.305 113.500 240.435 "/></g>
<g fill="#34195FFF" stroke="#34195FFF">
<path d="M 390.500 230.500 L 394.000 234.000 390.500 230.500 L 387.000 227.000 390.500 230.500 "/></g>
<g fill="#34195FFF" stroke="#34195FFF">
<path d="M 123.500 230.435 L 120.500 233.564 123.500 230.435 L 126.500 227.305 123.500 230.435 "/></g>
<g fill="#34195FFF" stroke="#34195FFF">
<path d="M 380.500 220.500 L 384.000 224.000 380.500 220.500 L 377.000 217.000 380.500 220.500 "/></g>
<g fill="#34195FFF" stroke="#34195FFF">
<path d="M 133.500 220.435 L 130.500 223.564 133.500 220.435 L 136.500 217.305 133.500 220.435 "/></g>
<g fill="#34195FFF" stroke="#34195FFF">
<path d="M 312.500 152.500 L 316.000 156.000 312.500 152.500 L 309.000 149.000 312.500 152.500 "/></g>
<g fill="#34195FFF" stroke="#34195FFF">
<path d="M 201.500 152.435 L 198.500 155.564 201.500 152.435 L 204.500 149.305 201.500 152.435 "/></g>
<g fill="#34195FFF" stroke="#34195FFF">
<path d="M 293.500 133.500 L 297.000 137.000 293.500 133.500 L 290.000 130.000 293.500 133.500 "/></g>
<g fill="#34195FFF" stroke="#34195FFF">
<path d="M 220.500 133.435 L 217.500 136.564 220.500 133.435 L 223.500 130.305 220.500 133.435 "/></g>
<g fill="#34195FFF" stroke="#34195FFF">
<path d="M 283.500 123.500 L 287.000 127.000 283.500 123.500 L 280.000 120.000 283.500 123.500 "/></g>
<g fill="#34195FFF" stroke="#34195FFF">
<path d="M 230.500 123.435 L 227.500 126.564 230.500 123.435 L 233.500 120.305 230.500 123.435 "/></g>
</svg>
